<svg width="149" height="25" xmlns="http://www.w3.org/2000/svg">
 <!-- Created with SVG Editor - http://github.com/mzalive/SVG Editor/ -->

 <g>
  <title>background</title>
  <rect fill="none" id="canvas_background" height="27" width="151" y="-1" x="-1"/>
  <g display="none" overflow="visible" y="0" x="0" height="100%" width="100%" id="canvasGrid">
   <rect fill="url(#gridpattern)" stroke-width="0" y="0" x="0" height="100%" width="100%"/>
  </g>
 </g>
 <g>
  <title>Layer 1</title>
  <text xml:space="preserve" text-anchor="start" font-family="Helvetica, Arial, sans-serif" font-size="24" id="svg_1" y="20.931386" x="43.630435" stroke-width="0" stroke="#000" fill="#fefefe">TestTask</text>
  <metadata transform="matrix(0.0014013713330819494,0,0,0.0014013713330819494,0,0) ">Created by potrace 1.15, written by Peter Selinger 2001-2017</metadata>
  <g stroke="null" id="svg_8">
   <g id="svg_6" fill="#000000" transform="matrix(0.0028597365956821064,0,0,-0.0028597365956821064,-1445.4677740616517,-229.60990577532) ">
    <path stroke="null" fill="#ffffff" id="svg_7" d="m516196.031155,-81596.612617c-772,-93 -1504,-467 -2317,-1184c-198,-174 -334,-303 -657,-624c-230,-229 -264,-258 -281,-249c-11,6 -100,93 -199,194c-1144,1171 -1886,1664 -2745,1822c-560,103 -1141,38 -1669,-186c-885,-376 -1533,-1167 -1714,-2093c-41,-207 -51,-318 -51,-565c0,-392 54,-719 176,-1065c338,-964 1145,-1627 2164,-1779c634,-95 1337,26 1957,335c243,121 448,250 703,441c321,239 556,450 1061,950c176,175 327,318 334,318c8,0 77,-66 154,-146c172,-179 592,-584 770,-743c820,-731 1442,-1055 2226,-1163c58,-8 194,-12 350,-12c213,0 279,4 400,23c650,100 1205,379 1659,832c457,457 742,1045 823,1699c19,155 16,563 -6,720c-78,561 -275,1067 -568,1457c-95,128 -294,332 -425,435c-364,290 -837,486 -1378,570c-172,26 -594,34 -767,13zm-6331,-1199c336,-71 676,-233 1010,-481c119,-88 297,-234 413,-339c146,-133 880,-850 880,-860c0,-16 -640,-649 -795,-788c-492,-438 -947,-715 -1375,-839c-202,-58 -321,-74 -565,-74c-190,0 -235,3 -334,23c-590,119 -1022,504 -1210,1077c-160,489 -130,953 90,1385c252,496 706,824 1266,915c63,10 146,13 293,10c172,-3 225,-8 327,-29zm6863,19c327,-46 605,-171 841,-378c439,-384 649,-1063 517,-1677c-134,-625 -615,-1131 -1229,-1295c-148,-39 -279,-55 -454,-55c-310,0 -559,62 -870,215c-327,160 -642,391 -1037,761c-248,232 -743,719 -746,734c-3,16 466,495 668,681c682,630 1221,933 1800,1014c130,18 382,18 510,0z"/>
   </g>
  </g>
 </g>
</svg>