<svg width="10" height="10" viewBox="0 0 10 10" fill="none" xmlns="http://www.w3.org/2000/svg">
<path d="M3.262 6.738V7.564H6.37V8.362H3.262V10H1.848V8.362H0.42V7.564H1.848V0.199999H5.698C6.97667 0.199999 7.97533 0.484666 8.694 1.054C9.41267 1.614 9.772 2.41667 9.772 3.462C9.772 4.51667 9.41267 5.32867 8.694 5.898C7.97533 6.458 6.97667 6.738 5.698 6.738H3.262ZM8.358 3.476C8.358 2.81333 8.12933 2.30467 7.672 1.95C7.21467 1.59533 6.55667 1.418 5.698 1.418H3.262V5.576H5.698C6.54733 5.576 7.20067 5.394 7.658 5.03C8.12467 4.65667 8.358 4.13867 8.358 3.476Z" fill="#668291"/>
</svg>
